<?xml version="1.0" standalone="no"?>
<!DOCTYPE svg PUBLIC "-//W3C//DTD SVG 20010904//EN"
 "http://www.w3.org/TR/2001/REC-SVG-20010904/DTD/svg10.dtd">
<svg version="1.0" xmlns="http://www.w3.org/2000/svg"
 width="1000.000000pt" height="1000.000000pt" viewBox="0 0 1000.000000 1000.000000"
 preserveAspectRatio="xMidYMid meet">
<metadata>
Created by potrace 1.14, written by Peter Selinger 2001-2017
</metadata>
<g transform="translate(0.000000,1000.000000) scale(0.100000,-0.100000)"
fill="#000000" stroke="none">
<path d="M2542 7424 l-2453 -2455 1030 -1031 c567 -566 1031 -1031 1031 -1031
0 -1 641 -645 1424 -1431 1300 -1305 1426 -1428 1442 -1415 9 8 233 229 496
493 l478 478 -974 975 -975 974 507 507 507 507 -2 969 c-1 617 -5 972 -11
978 -7 7 -353 -333 -1001 -980 l-990 -991 -496 496 -496 497 1475 1475 1475
1475 1966 -1966 1966 -1966 495 496 495 495 -2454 2453 c-1349 1350 -2460
2454 -2468 2453 -8 0 -1118 -1105 -2467 -2455z"/>
</g>
</svg>
